<svg width="34" height="32" viewBox="0 0 34 32" fill="none" xmlns="http://www.w3.org/2000/svg">
<g filter="url(#filter0_dd_6_336)">
<path d="M24.605 13.05C24.605 12.615 24.75 12.18 24.75 11.6C24.75 8.41002 22.14 5.80002 18.95 5.80002C16.63 5.80002 14.745 7.10502 13.73 8.99002C13.44 8.84502 12.86 8.70002 12.425 8.70002C10.395 8.70002 8.80001 10.295 8.80001 12.325C8.80001 12.615 8.80001 12.905 8.94501 13.05C6.33501 13.485 4.45001 15.515 4.45001 18.125C4.45001 20.88 6.77001 23.2 9.52501 23.2H24.025C26.78 23.2 29.1 20.88 29.1 18.125C29.1 15.515 27.215 13.34 24.605 13.05Z" fill="white"/>
</g>
<defs>
<filter id="filter0_dd_6_336" x="-1" y="0" width="37" height="37" filterUnits="userSpaceOnUse" color-interpolation-filters="sRGB">
<feFlood flood-opacity="0" result="BackgroundImageFix"/>
<feColorMatrix in="SourceAlpha" type="matrix" values="0 0 0 0 0 0 0 0 0 0 0 0 0 0 0 0 0 0 127 0" result="hardAlpha"/>
<feOffset dy="4"/>
<feGaussianBlur stdDeviation="2"/>
<feComposite in2="hardAlpha" operator="out"/>
<feColorMatrix type="matrix" values="0 0 0 0 0 0 0 0 0 0 0 0 0 0 0 0 0 0 0.25 0"/>
<feColorMatrix in="SourceAlpha" type="matrix" values="0 0 0 0 0 0 0 0 0 0 0 0 0 0 0 0 0 0 127 0" result="hardAlpha"/>
<feOffset dy="4"/>
<feGaussianBlur stdDeviation="2"/>
<feComposite in2="hardAlpha" operator="out"/>
<feColorMatrix type="matrix" values="0 0 0 0 0 0 0 0 0 0 0 0 0 0 0 0 0 0 0.10 0"/>
<feBlend mode="normal" in="SourceGraphic"  result="shape"/>
</filter>
</defs>
</svg>
